<svg width="48" height="48" viewBox="0 0 48 48" fill="none" xmlns="http://www.w3.org/2000/svg">
  <!-- Gift Box -->
  <rect x="8" y="16" width="32" height="24" rx="2" fill="#2563eb" stroke="#1d4ed8" stroke-width="2"/>
  
  <!-- Gift Ribbon Vertical -->
  <rect x="22" y="16" width="4" height="24" fill="#f59e0b"/>
  
  <!-- Gift Ribbon Horizontal -->
  <rect x="8" y="26" width="32" height="4" fill="#f59e0b"/>
  
  <!-- Gift Bow -->
  <path d="M18 12 C16 8, 20 8, 22 12" fill="#7c3aed" stroke="#6d28d9" stroke-width="1"/>
  <path d="M26 12 C28 8, 32 8, 30 12" fill="#7c3aed" stroke="#6d28d9" stroke-width="1"/>
  <circle cx="24" cy="12" r="2" fill="#7c3aed"/>
  
  <!-- Sparkles -->
  <circle cx="14" cy="10" r="1" fill="#f59e0b" opacity="0.8"/>
  <circle cx="34" cy="8" r="1" fill="#f59e0b" opacity="0.8"/>
  <circle cx="12" cy="35" r="1" fill="#f59e0b" opacity="0.8"/>
  <circle cx="36" cy="32" r="1" fill="#f59e0b" opacity="0.8"/>
  
  <!-- Small stars -->
  <path d="M42 14 L43 16 L45 15 L43 16.5 L44 18 L42 17 L40 18 L41 16.5 L39 15 L41 16 Z" fill="#10b981" opacity="0.6"/>
  <path d="M6 28 L7 30 L9 29 L7 30.5 L8 32 L6 31 L4 32 L5 30.5 L3 29 L5 30 Z" fill="#10b981" opacity="0.6"/>
</svg> 