<svg width="160" height="40" viewBox="0 0 160 40" fill="none" xmlns="http://www.w3.org/2000/svg">
  <!-- Gift Box Icon -->
  <rect x="2" y="10" width="26" height="20" rx="2" fill="#2563eb" stroke="#1d4ed8" stroke-width="1.5"/>
  
  <!-- Gift Ribbon -->
  <rect x="13" y="10" width="3" height="20" fill="#f59e0b"/>
  <rect x="2" y="18" width="26" height="3" fill="#f59e0b"/>
  
  <!-- Gift Bow -->
  <path d="M10 7 C9 4, 12 4, 13 7" fill="#7c3aed"/>
  <path d="M16 7 C17 4, 20 4, 19 7" fill="#7c3aed"/>
  <circle cx="14.5" cy="7" r="1.5" fill="#7c3aed"/>
  
  <!-- Text: LumisPresentes -->
  <text x="36" y="18" font-family="Plus Jakarta Sans, sans-serif" font-size="16" font-weight="700" fill="#1e293b">
    Lumis
  </text>
  <text x="36" y="28" font-family="Plus Jakarta Sans, sans-serif" font-size="10" font-weight="400" fill="#64748b" style="font-style: italic;">
    perfeição em cada detalhe
  </text>
  
  <text x="72" y="18" font-family="Plus Jakarta Sans, sans-serif" font-size="16" font-weight="700" fill="#2563eb">
    Presentes
  </text>
  
  <!-- Decorative Elements -->
  <circle cx="132" cy="8" r="1" fill="#f59e0b" opacity="0.6"/>
  <circle cx="138" cy="12" r="0.8" fill="#10b981" opacity="0.6"/>
  <circle cx="144" cy="16" r="1" fill="#7c3aed" opacity="0.6"/>
  <circle cx="150" cy="10" r="0.8" fill="#f59e0b" opacity="0.6"/>
  
  <!-- Small sparkle -->
  <path d="M148 25 L149 27 L151 26 L149 27.5 L150 29 L148 28 L146 29 L147 27.5 L145 26 L147 27 Z" fill="#10b981" opacity="0.4"/>
</svg> 